# xmcd
#
# Track frame offsets: 
#        150
#        15434
#        29456
#        48927
#        66535
#        81250
#        98881
#        120702
#        142790
#        160845
#        186313
#        190265
#
# Disc length: 2752 seconds
#
# Revision: 3
# Processed by: cddbd v1.5.2PL0 Copyright (c) Steve Scherf et al.
# Submitted via: ExactAudioCopy v0.99pb3
#
DISCID=9e0abe0c
DTITLE=Woven Hand - The Threshingfloor
DYEAR=2010
DGENRE=Rock
TTITLE0=Sinking Hands
TTITLE1=The Treshingfloor
TTITLE2=A Holy Measure
TTITLE3=Raise Her Hands
TTITLE4=His Rest
TTITLE5=Singing Grass
TTITLE6=Behind Your Breath
TTITLE7=Truth
TTITLE8=Terre Haute
TTITLE9=Orchard Gate
TTITLE10=Wheatstraw
TTITLE11=Denver City
EXTD=
EXTT0=
EXTT1=
EXTT2=
EXTT3=
EXTT4=
EXTT5=
EXTT6=
EXTT7=
EXTT8=
EXTT9=
EXTT10=
EXTT11=
PLAYORDER=
